<svg id="Capa_1" data-name="Capa 1" xmlns="http://www.w3.org/2000/svg" viewBox="0 0 378.31 388.97"><defs><style>.cls-1{fill:#ee724d;}.cls-2{fill:#f3904d;}</style></defs><path class="cls-1" d="M249.71,388.56a223.06,223.06,0,0,0-80.16-152A223.13,223.13,0,0,0,5.36,185.71L.19,130a278.74,278.74,0,0,1,205.13,63.49A278.7,278.7,0,0,1,305.47,383.38Z"/><path class="cls-2" d="M369.84,251.81a258.21,258.21,0,0,1-177-69.76A258.34,258.34,0,0,1,110.19,1l56-2c4,112.44,98.68,200.65,211.17,196.67l2,56C376.14,251.76,373,251.81,369.84,251.81Z"/></svg>